<svg xmlns="http://www.w3.org/2000/svg" xmlns:xlink="http://www.w3.org/1999/xlink" version="1.1" x="0px" y="0px" viewBox="0 0 100 100" enable-background="new 0 0 100 100" xml:space="preserve"><path fill="#fff" d="M90.386,16.252c0-0.012,0.001-0.024,0-0.036c0-0.019-0.003-0.039-0.003-0.058  c-0.002-0.033-0.003-0.065-0.006-0.097c-0.003-0.031-0.006-0.062-0.009-0.092c-0.004-0.032-0.008-0.064-0.012-0.096  c-0.004-0.03-0.01-0.061-0.015-0.091c-0.006-0.032-0.012-0.063-0.019-0.095c-0.006-0.03-0.014-0.06-0.021-0.089  c-0.008-0.031-0.016-0.062-0.025-0.092c-0.008-0.029-0.017-0.058-0.027-0.087c-0.01-0.03-0.02-0.06-0.031-0.091  c-0.01-0.028-0.021-0.057-0.032-0.085c-0.012-0.03-0.024-0.059-0.037-0.089c-0.012-0.027-0.024-0.054-0.037-0.082  c-0.014-0.029-0.029-0.058-0.044-0.087c-0.013-0.026-0.027-0.052-0.042-0.078c-0.016-0.029-0.033-0.057-0.05-0.084  c-0.015-0.025-0.03-0.05-0.046-0.074c-0.018-0.028-0.037-0.055-0.056-0.082c-0.017-0.024-0.033-0.047-0.05-0.071  c-0.02-0.027-0.041-0.053-0.061-0.079c-0.018-0.023-0.036-0.045-0.055-0.067c-0.022-0.025-0.044-0.05-0.067-0.075  c-0.019-0.021-0.038-0.043-0.058-0.063c-0.023-0.024-0.048-0.047-0.072-0.071c-0.021-0.02-0.042-0.04-0.063-0.06  c-0.025-0.022-0.051-0.044-0.076-0.065c-0.023-0.019-0.045-0.038-0.068-0.056c-0.026-0.021-0.053-0.04-0.08-0.06  c-0.024-0.018-0.048-0.035-0.072-0.052c-0.028-0.019-0.057-0.037-0.085-0.055c-0.025-0.016-0.05-0.032-0.076-0.047  c-0.005-0.003-0.01-0.006-0.015-0.009c-0.026-0.015-0.053-0.029-0.08-0.043c-0.02-0.011-0.04-0.023-0.061-0.034L62.276,0.306  c-0.849-0.43-1.858-0.405-2.685,0.068L48.595,6.658c-0.013,0.007-0.025,0.016-0.037,0.023c-0.013,0.008-0.027,0.015-0.04,0.023  c-0.015,0.01-0.03,0.02-0.045,0.03c-0.025,0.016-0.051,0.033-0.076,0.05c-0.027,0.018-0.053,0.038-0.079,0.057  c-0.024,0.018-0.048,0.036-0.072,0.054c-0.026,0.02-0.05,0.041-0.075,0.062c-0.023,0.019-0.045,0.038-0.067,0.058  c-0.024,0.022-0.048,0.045-0.071,0.068c-0.021,0.02-0.042,0.04-0.062,0.061c-0.023,0.024-0.046,0.049-0.068,0.074  c-0.019,0.021-0.038,0.041-0.056,0.063c-0.022,0.026-0.043,0.053-0.064,0.08c-0.017,0.021-0.034,0.042-0.051,0.064  C47.71,7.451,47.69,7.48,47.67,7.509c-0.015,0.022-0.03,0.043-0.044,0.064c-0.021,0.032-0.04,0.065-0.06,0.098  c-0.012,0.02-0.024,0.039-0.035,0.059c-0.027,0.048-0.052,0.096-0.075,0.145c-0.008,0.017-0.016,0.033-0.024,0.05  c-0.02,0.044-0.041,0.089-0.059,0.135c-0.009,0.024-0.018,0.048-0.026,0.072c-0.012,0.034-0.025,0.067-0.036,0.101  c-0.009,0.027-0.016,0.055-0.024,0.082c-0.009,0.032-0.019,0.063-0.027,0.095c-0.007,0.029-0.014,0.058-0.02,0.088  c-0.007,0.031-0.014,0.062-0.02,0.093c-0.006,0.03-0.01,0.061-0.015,0.091c-0.005,0.031-0.01,0.062-0.014,0.093  c-0.004,0.031-0.006,0.062-0.009,0.093c-0.003,0.031-0.006,0.062-0.007,0.093c-0.002,0.031-0.002,0.063-0.003,0.095  c0,0.02-0.002,0.04-0.002,0.061V16.3L24.72,4.927c-0.849-0.43-1.858-0.405-2.684,0.068L11.04,11.279  c-0.012,0.007-0.024,0.015-0.036,0.022c-0.014,0.008-0.028,0.015-0.041,0.024c-0.016,0.01-0.031,0.021-0.046,0.03  c-0.025,0.016-0.049,0.032-0.073,0.048c-0.028,0.019-0.054,0.038-0.081,0.058c-0.024,0.018-0.048,0.035-0.071,0.054  c-0.026,0.02-0.05,0.041-0.075,0.062c-0.023,0.019-0.045,0.038-0.068,0.058c-0.024,0.022-0.047,0.044-0.07,0.066  c-0.021,0.021-0.043,0.041-0.064,0.063c-0.022,0.023-0.044,0.047-0.065,0.071c-0.02,0.022-0.04,0.043-0.059,0.066  c-0.021,0.025-0.041,0.05-0.061,0.075c-0.018,0.023-0.037,0.045-0.054,0.068c-0.02,0.027-0.038,0.054-0.057,0.081  c-0.016,0.023-0.033,0.046-0.048,0.069c-0.019,0.03-0.037,0.06-0.055,0.09c-0.013,0.022-0.027,0.044-0.04,0.066  c-0.023,0.041-0.044,0.083-0.065,0.125c-0.014,0.027-0.027,0.055-0.039,0.083c-0.018,0.04-0.037,0.08-0.053,0.121  c-0.01,0.025-0.018,0.049-0.027,0.074c-0.012,0.033-0.025,0.065-0.036,0.099c-0.009,0.027-0.016,0.054-0.024,0.082  c-0.009,0.032-0.019,0.063-0.027,0.096c-0.007,0.028-0.013,0.057-0.02,0.086c-0.007,0.032-0.015,0.063-0.021,0.095  c-0.006,0.029-0.01,0.059-0.014,0.089c-0.005,0.032-0.01,0.063-0.014,0.095c-0.004,0.03-0.006,0.061-0.009,0.091  c-0.003,0.032-0.006,0.064-0.008,0.096c-0.002,0.031-0.002,0.062-0.003,0.093c0,0.021-0.002,0.041-0.002,0.062V79  c0,1.067,0.6,2.043,1.552,2.526l26.559,13.459c0.403,0.204,0.842,0.306,1.28,0.306c0.515,0,1.029-0.14,1.482-0.419  c0.006-0.004,0.012-0.008,0.018-0.012l3.311-1.894l13.396,6.789c0.403,0.204,0.842,0.306,1.28,0.306c0.515,0,1.029-0.14,1.483-0.419  c0.007-0.004,0.013-0.009,0.02-0.013l10.9-6.236c0.882-0.504,1.425-1.442,1.425-2.458V64.395l2.961,1.5  c0.403,0.204,0.842,0.306,1.28,0.306c0.515,0,1.029-0.14,1.482-0.419c0.007-0.004,0.014-0.01,0.021-0.014l10.899-6.235  c0.881-0.504,1.425-1.442,1.425-2.458V16.287C90.387,16.275,90.386,16.264,90.386,16.252z M61.077,6.047l20.509,10.39l-5.108,2.919  L55.969,8.966L61.077,6.047z M36.172,87.85l-20.896-10.59V18.346l20.896,10.588V87.85z M38.922,23.977l-20.508-10.39l5.108-2.919  l20.509,10.39L38.922,23.977z M47.169,84.522l-5.333,3.051V28.836l5.333-3.048v18.07V84.522z M55.659,92.619l-5.96-3.021  l1.707-0.977c0.881-0.504,1.425-1.442,1.425-2.458V61.758l2.828,1.433V92.619z M58.409,58.234l-5.577-2.826v-5.507l10.685,5.413  L58.409,58.234z M66.655,89.292l-5.333,3.051v-29.25l5.333-3.048V89.292z M72.317,55.131c0-0.013,0.001-0.025,0.001-0.038  c-0.001-0.02-0.003-0.041-0.004-0.061c-0.001-0.031-0.003-0.062-0.006-0.093c-0.003-0.032-0.006-0.065-0.01-0.098  c-0.003-0.03-0.007-0.06-0.011-0.09c-0.005-0.033-0.01-0.065-0.016-0.097c-0.006-0.029-0.011-0.059-0.018-0.088  c-0.007-0.032-0.014-0.064-0.022-0.095c-0.008-0.029-0.015-0.058-0.024-0.087c-0.009-0.031-0.018-0.062-0.028-0.093  c-0.009-0.029-0.019-0.057-0.029-0.085c-0.011-0.03-0.022-0.06-0.034-0.089c-0.011-0.028-0.023-0.057-0.035-0.084  c-0.012-0.029-0.025-0.057-0.038-0.085c-0.014-0.028-0.028-0.056-0.042-0.084c-0.014-0.027-0.028-0.054-0.043-0.08  c-0.016-0.028-0.032-0.056-0.049-0.083c-0.015-0.025-0.03-0.05-0.046-0.075c-0.018-0.028-0.037-0.055-0.056-0.082  c-0.017-0.023-0.033-0.047-0.05-0.07c-0.02-0.027-0.041-0.054-0.063-0.08c-0.018-0.022-0.035-0.044-0.053-0.065  c-0.022-0.026-0.046-0.052-0.069-0.077c-0.019-0.02-0.037-0.041-0.057-0.061c-0.024-0.025-0.05-0.049-0.075-0.073  c-0.02-0.019-0.04-0.038-0.06-0.057c-0.026-0.023-0.052-0.045-0.079-0.068c-0.022-0.018-0.043-0.036-0.065-0.054  c-0.027-0.021-0.055-0.041-0.083-0.062c-0.023-0.017-0.046-0.034-0.07-0.051c-0.028-0.019-0.057-0.037-0.086-0.056  c-0.025-0.016-0.049-0.032-0.075-0.047c-0.005-0.003-0.01-0.006-0.014-0.009c-0.027-0.015-0.054-0.029-0.081-0.043  c-0.02-0.011-0.04-0.023-0.061-0.034l-17.935-9.086V20.908v-7.183l20.896,10.588V58.76l-1.409-0.714v-2.882  C72.319,55.153,72.317,55.142,72.317,55.131z M84.724,55.433l-5.333,3.051V24.215l5.333-3.048V55.433z"></path></svg>
